PathFileType	4	(X/Y/Z)	C:\Users\WrightLab\Desktop\Jo\P4V16.trc
DataRate	CameraRate	NumFrames	NumMarkers	Units	OrigDataRate	OrigDataStartFrame	OrigNumFrames
100.00	100.00	       27	19	mm	100.00	460	       525
Frame#	Time	Headset_Front			Headset_Back			Headset_Left			Headset_Right			Left_Shoulder			Right_Shoulder			Sternum			C7			Left Elbow			Right Elbow			Left Wrist			Right Wrist			Left ASIS			Right ASIS			S2			Left Knee			Right Knee			Left Ankle			Right Ankle			
		X1	Y1	Z1	X2	Y2	Z2	X3	Y3	Z3	X4	Y4	Z4	X5	Y5	Z5	X6	Y6	Z6	X7	Y7	Z7	X8	Y8	Z8	X9	Y9	Z9	X10	Y10	Z10	X11	Y11	Z11	X12	Y12	Z12	X13	Y13	Z13	X14	Y14	Z14	X15	Y15	Z15	X16	Y16	Z16	X17	Y17	Z17	X18	Y18	Z18	X19	Y19	Z19	

460	4.590	-135.87393	1758.38013	2295.65259	-221.09946	1767.23401	2172.64307							54.98244	1580.23047	2136.39502	-246.35838	1571.86670	2069.16211	-107.00933	1522.62854	2213.42139				194.10576	1230.46155	2182.44751	-411.28244	1248.48633	2158.90820	132.80931	968.49646	2340.30225	-385.63504	1035.86047	2374.76465	46.80371	1085.51636	2252.47192	-280.70242	1086.62854	2174.21973				41.77630	617.46747	2362.09644	-275.62158	600.85278	2212.52344	112.50733	225.79454	2041.32471	-193.52292	101.27973	2186.71655	
461	4.600	-139.43768	1759.46155	2300.80664	-224.29314	1768.32886	2176.96313							52.37862	1581.32910	2139.86475	-249.29131	1571.92419	2073.61011	-110.13844	1522.76843	2218.43677				191.78500	1230.99060	2183.22339	-413.56476	1249.99951	2165.18530	131.40726	970.60950	2343.50586	-387.87372	1042.18689	2387.52612	43.98441	1086.61621	2257.02441	-282.97711	1086.76685	2176.18994				37.23325	619.16193	2367.79126	-276.41113	600.44470	2212.75317	105.16608	215.47969	2061.26221	-193.73517	101.16801	2186.79956	
462	4.610	-141.94174	1760.17175	2304.35962	-227.10144	1768.98462	2180.96875							48.84610	1582.41125	2144.85620	-252.00151	1572.26135	2078.36206	-112.80878	1523.62695	2223.19580				189.72701	1232.70056	2185.16479	-417.50623	1251.97302	2172.61182	131.32539	971.36261	2345.49512	-389.67480	1049.08606	2399.10498	41.21654	1087.68384	2261.61841	-285.40689	1087.09204	2178.93286				31.77458	619.83508	2373.03882	-277.00577	600.05389	2212.66162	97.86901	203.82707	2081.14990	-193.85515	101.08587	2186.82471	
463	4.620	-145.43718	1761.25427	2309.42310	-230.13020	1769.57397	2185.39160							45.73037	1583.08386	2149.62354	-255.45796	1573.70618	2084.09595	-115.22923	1524.04175	2227.50366				188.55534	1233.66541	2188.01001	-421.10764	1253.33240	2179.79688	129.91151	972.85583	2348.46802				38.57184	1088.46802	2265.90820	-287.28802	1087.09070	2180.68042				26.81952	620.22772	2376.60669	-277.74554	600.22949	2211.86914	91.20787	192.42929	2102.09497	-194.01741	101.00726	2186.88184	
464	4.630	-148.09070	1761.76978	2313.54370	-233.19106	1769.94824	2189.87183							43.37125	1583.85107	2153.11450	-258.07330	1573.37085	2088.52808	-117.87200	1524.47327	2231.99634				185.75136	1234.23425	2188.99658	-424.02145	1254.78821	2187.43433	129.32211	973.92657	2350.13354				36.19466	1088.63245	2269.90259	-289.20584	1086.98120	2182.60034				22.43271	620.50067	2380.92700	-278.75189	599.86865	2212.30420	84.55486	180.76811	2122.18481	-194.10178	100.92487	2186.91772	
465	4.640	-150.72238	1762.41748	2317.62573	-236.35345	1770.57690	2194.64722							40.49106	1584.17749	2157.76245	-260.78268	1573.57397	2092.84985	-120.47218	1524.29431	2236.59326				184.22966	1234.87878	2190.87402	-426.99863	1256.13257	2194.29565	128.30060	974.71344	2352.39819				34.04406	1089.26831	2273.55981	-290.79782	1087.18213	2185.21240				16.97405	621.08038	2383.62427	-279.38736	599.62134	2212.24609	77.69939	170.26057	2143.35522	-194.28214	100.73965	2187.00684	
466	4.650	-153.87683	1763.29089	2322.40991	-238.80003	1770.88318	2198.04150							37.64788	1585.10571	2162.15503	-263.51508	1574.13782	2098.13550	-122.77231	1524.42432	2241.35352				182.68326	1236.19775	2193.83740	-429.20505	1257.27185	2201.52271	127.25101	974.91736	2354.92822				31.89692	1089.52393	2277.49048	-291.87820	1088.26404	2189.20654				12.15167	621.58929	2388.14453	-280.27924	599.38074	2212.63940	72.28904	159.99429	2166.00757	-194.17722	100.79065	2186.92773	
467	4.660	-156.12604	1763.60083	2325.80322	-241.34471	1771.03076	2202.15503							34.75724	1585.61731	2166.93481	-266.44705	1574.19312	2103.72363	-125.04841	1524.60364	2245.33008				180.49039	1236.74402	2195.58154	-432.15234	1258.32715	2208.66089	126.29398	975.47626	2357.06445				29.54363	1089.54138	2281.51099	-293.07327	1089.15686	2193.99390				7.67340	620.15948	2387.65381	-281.20740	599.51666	2213.09790	67.25388	151.22298	2189.98535	-194.20363	100.73681	2186.93726	
468	4.670	-158.64224	1763.68433	2329.88672	-244.03169	1770.95410	2206.40479							32.13017	1586.52429	2171.40503	-268.89182	1574.69373	2107.74194	-127.49210	1524.33752	2249.80664				178.85184	1237.33118	2199.52954	-433.86325	1259.25684	2214.37109	125.06809	975.76959	2359.66309				27.36833	1089.49146	2284.96533	-293.91202	1089.86768	2198.17456				3.38705	619.45618	2391.25391	-281.58929	599.33289	2212.95801	61.13470	143.25795	2210.22876	-194.12737	100.78248	2186.88037	
469	4.680	-161.15002	1764.17456	2333.83545	-246.70859	1771.35315	2210.94727							29.87533	1586.81860	2175.90259	-271.29694	1574.43433	2112.87549	-129.87932	1524.07446	2253.94922				176.69957	1237.53088	2201.87891	-436.11145	1259.81653	2221.86792	124.38077	975.19995	2361.79688				25.23195	1089.38037	2289.07666							-1.60268	619.58685	2392.13184	-282.13873	598.86011	2214.30103	57.09896	135.19905	2232.80591	-194.21671	100.69576	2186.94629	
470	4.690	-163.39890	1764.27246	2337.65527	-248.92201	1771.16553	2214.48828							27.57720	1587.41577	2180.96558	-273.30334	1574.83643	2117.31641	-131.83577	1523.68921	2257.95557				175.24136	1238.43091	2205.44849	-437.76462	1260.58838	2227.60034	122.96378	975.52924	2364.33887				22.70023	1090.09375	2293.15869							-5.57778	619.85193	2395.66650	-282.58408	598.93323	2214.69434	51.84420	129.38622	2251.76636	-194.17717	100.75742	2186.92554	
471	4.700	-165.74335	1764.67761	2341.74438	-251.58688	1771.71802	2218.94092							25.72283	1587.94495	2185.84106	-274.77899	1574.39368	2120.94702	-133.90193	1523.74561	2261.27100				173.66486	1238.95459	2209.95581	-439.34012	1260.75635	2233.19629	121.97717	974.71057	2366.70630				20.55566	1090.32629	2297.69604							-8.48905	618.29407	2397.44067	-282.91107	598.70966	2215.23120	47.32149	124.06719	2270.37720	-194.24786	100.69786	2186.96240	
472	4.710	-168.21660	1764.94128	2346.28638	-253.34929	1771.34631	2222.40747							24.23605	1588.19055	2189.42529	-276.47675	1573.57520	2124.79346	-136.21066	1523.11682	2265.67944				171.36894	1239.25854	2212.96387	-440.43274	1261.32874	2239.32886	120.62723	973.52148	2368.87646				19.36362	1090.01904	2300.71582							-12.20571	617.42676	2398.23535	-283.74582	598.42175	2216.44189	43.10737	120.27042	2288.89453	-194.17731	100.70062	2186.90991	
473	4.720	-170.08913	1764.82861	2349.68433	-255.64799	1771.57935	2226.28003							22.70688	1587.90491	2192.90405	-278.10980	1573.93250	2128.36157	-138.07930	1523.19238	2268.71802				170.18974	1239.55383	2217.77466	-441.38867	1261.82776	2244.34155	119.49541	973.12494	2371.20996				17.39046	1090.21460	2305.04272							-15.53055	618.20831	2401.60181	-284.33524	598.22369	2217.16602	39.46709	117.30735	2305.70483	-194.15660	100.70963	2186.90015	
474	4.730	-172.09862	1764.95789	2353.68579	-257.29138	1771.17664	2229.88086							21.13802	1588.29626	2197.13940	-279.64719	1573.58752	2132.33252	-139.70604	1522.61694	2272.47485				168.88498	1239.62561	2222.30542	-442.77258	1261.96997	2250.54199	118.57253	971.37927	2372.94067				15.50440	1090.49963	2309.24878							-17.65019	617.73291	2403.72729	-283.65671	598.97076	2213.61621	37.21488	114.54351	2322.08984	-194.14841	100.71791	2186.89331	
475	4.740	-173.63000	1764.94165	2357.09961	-258.99756	1771.10229	2233.54858							18.88953	1588.92859	2203.10254	-280.65073	1572.89929	2134.64575	-141.37695	1522.92981	2276.15405				167.01474	1240.56091	2228.06519	-443.01089	1262.57629	2255.03833	116.69269	970.55988	2376.18359				13.55478	1090.67151	2313.15698							-20.02080	617.78760	2406.94214	-284.43158	598.94818	2214.35327	33.39135	113.66692	2335.38940	-194.15932	100.77654	2186.92627	
476	4.750	-175.13737	1764.62634	2360.29590	-260.46219	1771.08813	2236.77271							17.50270	1589.31152	2206.92920	-281.91473	1572.56226	2137.16211	-142.55852	1523.11511	2278.88794				165.63745	1240.84302	2232.55981	-443.16061	1263.36719	2259.66138	115.79482	968.40692	2378.20264				11.17199	1091.43188	2317.37476							-22.21857	618.72247	2410.20117	-285.12750	598.87860	2214.97314	30.37881	113.05605	2348.93701	-194.13008	100.72340	2186.88232	
477	4.760	-177.03789	1764.43311	2363.93115	-262.05762	1771.55225	2240.16284							16.76447	1588.98804	2209.61719	-282.87949	1572.52734	2139.69238	-144.13626	1522.90234	2282.55420				164.40659	1240.76794	2238.73779	-443.51971	1263.73926	2264.64185	114.53455	967.27051	2380.61084				9.81919	1091.44604	2320.64453							-24.05153	619.12506	2413.94116	-285.85309	598.83282	2215.70581	27.82108	111.88590	2359.44531	-194.08113	100.77688	2186.84058	
478	4.770	-178.46028	1764.35144	2367.06079										15.47670	1589.98645	2214.34375	-284.06317	1572.20239	2142.57715	-145.24022	1523.01208	2285.31226				162.46658	1240.84607	2242.91577				113.14513	965.97687	2383.49219				8.07904	1091.90161	2324.34595							-24.85375	618.59723	2415.18408	-286.14240	598.88068	2216.46143	24.81367	110.69958	2369.24707	-194.10670	100.72983	2186.85864	
479	4.780	-178.92581	1763.95300	2369.93384										15.20263	1589.86389	2217.38794	-284.64417	1572.42383	2144.80469	-146.64526	1523.33728	2287.95142				161.27504	1241.43872	2249.22266				112.12306	964.95618	2385.72485				6.15945	1092.28345	2328.55469							-26.44390	618.78540	2419.03540	-286.52808	598.79272	2217.68164	23.41860	110.16630	2378.70825	-194.15268	100.77682	2186.91968	
480	4.790	-180.23151	1764.12329	2373.68286										13.74942	1590.12097	2221.47388	-285.02216	1572.60400	2147.27856	-148.03831	1523.63684	2290.98438				160.18230	1241.56677	2254.97339				110.72140	963.68683	2388.92285				4.56182	1092.69324	2332.31421							-26.37884	619.25787	2422.17554	-286.98608	598.91895	2219.60229	21.08755	109.81615	2385.77612	-194.05052	100.71727	2186.79858	
481	4.800	-181.15608	1763.45630	2376.94141										13.41308	1590.22058	2225.00171	-285.38193	1572.49902	2149.83032	-149.12668	1523.90173	2293.53955				158.76840	1241.38403	2260.25000				110.12690	962.41315	2391.34888				3.18655	1093.18164	2335.57373							-27.31779	618.42749	2424.34302	-287.76984	598.80481	2221.05615	20.01803	110.46203	2393.84326	-194.08070	100.74028	2186.83350	
482	4.810	-181.86357	1763.40112	2379.33545										12.40134	1590.76416	2230.00732	-285.63501	1572.86584	2151.59009	-150.25140	1524.06750	2296.33887				157.61435	1241.69775	2265.26929				108.16888	961.82373	2395.37646				1.52507	1093.61890	2339.50293							-28.57026	617.62573	2426.56152	-288.44080	598.91809	2222.64404	19.82281	110.41173	2398.86450	-194.17586	100.72516	2186.89917	
483	4.820	-182.47357	1763.32068	2382.44214										12.02855	1590.37109	2232.68896	-285.67938	1572.71118	2153.03027	-151.25758	1523.87744	2299.34326				156.86362	1241.86145	2271.89844				107.49116	960.37585	2398.21094				0.07800	1094.20361	2343.29858							-28.26376	617.98761	2429.53247	-288.90802	598.94238	2223.73633	19.37113	110.06713	2402.51904	-194.15643	100.69748	2186.87915	
484	4.830	-182.95671	1763.58984	2385.99927										11.54243	1590.88794	2237.04004	-285.46225	1573.03015	2154.45190	-151.99666	1524.06165	2302.12500				155.46085	1242.39063	2277.24878				105.78177	959.87543	2401.78174				-0.71437	1094.23181	2346.60278							-28.90524	618.29126	2432.62500	-289.54214	599.11310	2225.17017	19.48344	111.45332	2408.10254	-194.21143	100.64451	2186.91577	
485	4.840	-183.22447	1763.17273	2388.16406										11.24763	1590.62585	2240.29663	-285.41956	1573.45178	2157.28687	-153.07822	1524.20398	2305.05078				155.57690	1242.66382	2283.90991				105.08186	959.35291	2405.00366				-1.96209	1094.81299	2350.70410							-28.74004	616.91821	2434.29028	-290.02448	599.34119	2226.83569	20.00399	111.78420	2410.06836	-194.20630	100.54553	2186.87866	
486	4.850	-184.09134	1763.09570	2391.36670										11.43624	1590.37341	2243.50269	-285.39523	1573.49280	2159.53198	-154.13388	1524.61731	2308.04614				154.27258	1242.02332	2287.77930				103.48163	959.48120	2409.66846				-2.40932	1094.23230	2353.80566							-28.82941	616.73737	2437.74219	-290.55905	599.37946	2229.20435	20.66088	111.31962	2410.59546	-194.35638	100.53183	2187.00342	
